<?xml version="1.0" standalone="no"?>
<!DOCTYPE svg PUBLIC "-//W3C//DTD SVG 20010904//EN"
 "http://www.w3.org/TR/2001/REC-SVG-20010904/DTD/svg10.dtd">
<svg version="1.0" xmlns="http://www.w3.org/2000/svg"
 width="632.000000pt" height="632.000000pt" viewBox="0 0 632.000000 632.000000"
 preserveAspectRatio="xMidYMid meet">
<metadata>
Created by potrace 1.14, written by Peter Selinger 2001-2017
</metadata>
<g transform="translate(0.000000,632.000000) scale(0.100000,-0.100000)"
fill="#000000" stroke="none">
<path d="M3142 6227 c-13 -40 -32 -90 -41 -112 -10 -22 -26 -58 -36 -80 -10
-22 -38 -74 -63 -115 -25 -41 -46 -90 -47 -108 -2 -29 -26 -61 -46 -62 -12 0
-29 -55 -25 -83 4 -30 29 -64 55 -72 13 -4 17 -15 15 -40 -2 -25 2 -37 15 -45
25 -13 48 -64 56 -127 5 -41 4 -53 -7 -54 -7 0 -42 -2 -78 -4 -141 -8 -324
-34 -350 -50 -4 -3 -23 -7 -43 -10 -19 -3 -72 -19 -118 -36 -46 -17 -88 -32
-94 -33 -18 -5 -49 -19 -154 -68 -57 -26 -106 -48 -110 -48 -3 0 -18 -6 -33
-14 -14 -8 -43 -20 -65 -27 -107 -36 -190 -48 -306 -44 -59 2 -111 6 -115 8
-4 3 -38 8 -77 11 -38 4 -83 10 -100 12 -16 3 -39 6 -50 8 -34 5 -119 18 -140
22 -11 2 -33 7 -50 9 -16 3 -37 8 -46 11 -9 2 -32 7 -50 9 -19 3 -65 13 -104
23 -84 21 -91 21 -131 -1 -40 -21 -64 -58 -68 -105 -4 -34 16 -90 35 -102 4
-3 10 -29 12 -57 3 -28 11 -61 20 -73 11 -16 12 -30 6 -58 -5 -20 -32 -129
-59 -242 -28 -113 -53 -214 -55 -225 -2 -11 -4 -20 -5 -20 -2 0 -5 -12 -13
-50 -3 -11 -12 -46 -20 -77 -8 -32 -13 -58 -10 -58 3 0 0 -6 -6 -13 -6 -8 -8
-17 -5 -20 3 -3 2 -12 -2 -19 -5 -7 -9 -18 -10 -24 -1 -6 -12 -51 -24 -100
-12 -49 -23 -96 -25 -104 -2 -8 -56 -226 -120 -485 -64 -258 -118 -477 -120
-485 -2 -8 -17 -71 -35 -140 -17 -69 -33 -133 -35 -143 -2 -10 -6 -26 -9 -35
-3 -9 -7 -28 -10 -42 -2 -14 -12 -52 -20 -85 -9 -33 -19 -72 -21 -87 -3 -15
-9 -38 -15 -52 -5 -15 -7 -26 -5 -26 2 0 0 -12 -6 -27 -6 -16 -12 -37 -14 -48
-2 -11 -9 -40 -15 -65 -7 -25 -13 -52 -15 -60 -28 -118 -28 -117 -57 -118 -42
-1 -48 -9 -48 -66 0 -54 12 -76 42 -76 15 0 30 -32 42 -95 14 -67 19 -74 59
-93 40 -18 73 -19 707 -18 647 1 666 2 692 21 25 19 39 53 53 134 8 44 12 51
35 51 26 0 37 25 37 82 1 52 -8 60 -67 62 -26 1 -36 6 -38 21 -5 25 -32 137
-101 415 -23 91 -44 176 -47 190 -3 14 -21 88 -41 165 -19 77 -37 148 -39 157
-2 10 -6 26 -8 36 -2 9 -25 100 -51 202 -25 102 -48 196 -51 210 -3 14 -10 43
-16 65 -6 22 -13 49 -15 60 -2 11 -8 38 -14 60 -6 22 -13 48 -15 57 -2 10 -7
28 -10 41 -3 12 -9 38 -14 57 -16 66 -18 75 -30 120 -7 25 -13 52 -15 61 -2 9
-31 128 -65 264 -34 136 -63 257 -66 268 -2 11 -8 34 -13 51 -6 17 -12 42 -15
56 -3 14 -21 90 -41 170 -35 142 -36 145 -19 183 10 21 17 51 17 67 0 20 11
39 32 60 27 27 35 29 56 21 44 -19 416 -113 504 -127 17 -3 52 -9 78 -14 141
-29 417 -28 492 0 14 5 25 8 25 5 0 -2 26 5 58 16 70 25 230 70 257 74 11 1
32 6 47 10 20 5 35 1 56 -13 111 -80 360 -168 490 -175 6 0 13 -3 13 -6 1 -3
2 -613 3 -1354 l1 -1348 -24 -27 c-64 -74 -106 -159 -118 -238 -14 -101 -1
-229 32 -298 l17 -34 -40 -40 c-67 -67 -64 -157 7 -211 l30 -23 -21 -22 c-65
-67 -104 -228 -123 -501 -11 -156 -23 -225 -38 -226 -7 0 -48 0 -92 0 -47 1
-90 -4 -104 -11 -31 -17 -63 -60 -66 -90 -1 -12 -3 -28 -4 -34 -1 -7 -128 -10
-427 -10 -457 1 -468 0 -500 -49 -16 -24 -27 -129 -17 -160 2 -7 540 -9 1591
-8 873 1 1602 2 1620 2 l32 1 0 66 c0 72 -17 114 -57 135 -17 9 -130 13 -455
13 l-432 1 -9 45 c-11 61 -53 97 -110 98 -166 1 -166 1 -165 20 0 9 -2 33 -5
52 -8 50 -16 132 -22 230 -3 46 -7 96 -10 110 -2 14 -7 41 -10 60 -10 66 -28
133 -41 159 -8 14 -14 30 -14 35 0 4 -14 26 -32 48 -25 32 -28 42 -17 49 8 5
17 9 21 9 3 0 16 16 28 35 40 65 22 152 -41 189 -26 15 -28 20 -17 39 23 44
46 159 46 232 0 121 -35 222 -107 308 l-41 49 0 1356 c0 745 2 1353 5 1350 3
-3 36 1 73 9 37 8 77 16 90 19 56 11 195 69 276 114 l90 50 85 -20 c47 -12 93
-23 101 -26 8 -3 15 -5 15 -4 0 0 27 -9 60 -20 198 -68 391 -81 625 -40 30 5
71 12 90 15 19 3 42 8 50 10 8 2 26 6 40 9 41 8 59 13 200 51 152 41 165 44
199 51 13 3 26 6 30 7 16 4 64 -55 66 -84 2 -17 10 -47 20 -68 16 -36 15 -41
-5 -117 -11 -43 -22 -86 -24 -94 -2 -8 -14 -55 -26 -105 -12 -49 -58 -234
-101 -410 -44 -176 -83 -331 -86 -345 -10 -49 -11 -55 -13 -55 -1 0 -3 -7 -5
-16 -1 -9 -19 -81 -39 -160 -19 -79 -37 -155 -40 -169 -3 -14 -13 -52 -22 -85
-9 -33 -18 -68 -20 -77 -2 -10 -6 -26 -8 -35 -3 -10 -30 -121 -60 -248 -31
-126 -61 -248 -67 -269 -6 -22 -13 -48 -15 -58 -7 -32 -11 -49 -84 -338 -39
-157 -72 -294 -74 -305 -2 -16 -12 -20 -46 -22 -51 -2 -60 -13 -60 -74 0 -48
10 -64 45 -71 11 -2 20 -8 20 -13 1 -21 27 -121 37 -141 24 -51 12 -50 741
-50 l679 1 29 33 c16 18 29 40 29 50 0 10 7 42 15 70 12 39 20 52 35 52 26 0
40 29 40 84 0 37 -4 46 -22 52 -13 4 -28 7 -35 6 -13 -3 -22 9 -28 35 -3 10
-9 36 -15 58 -6 22 -13 49 -15 60 -2 11 -25 103 -51 205 -25 102 -47 192 -49
200 -2 8 -20 80 -40 160 -19 80 -38 156 -41 170 -3 14 -21 86 -40 160 -19 74
-37 146 -40 160 -3 14 -35 142 -70 285 -36 143 -67 271 -70 285 -3 14 -9 39
-15 56 -5 17 -12 42 -15 55 -10 47 -23 105 -34 149 -7 25 -14 53 -16 63 -2 9
-6 26 -9 37 -3 11 -7 28 -9 38 -10 40 -27 108 -32 127 -3 11 -10 38 -15 60 -5
22 -11 49 -14 60 -3 11 -7 29 -10 40 -2 11 -9 40 -16 65 -6 25 -12 53 -14 63
-2 10 -7 27 -10 37 -3 10 -7 27 -9 37 -2 10 -15 62 -29 115 -24 92 -25 99 -10
129 9 18 17 50 19 72 1 22 12 53 23 68 79 107 -18 242 -147 204 -23 -7 -42
-11 -42 -9 0 2 -11 -1 -26 -6 -24 -9 -37 -12 -116 -25 -18 -3 -40 -8 -48 -10
-8 -2 -31 -6 -50 -9 -19 -3 -46 -8 -60 -11 -14 -3 -43 -7 -65 -10 -22 -3 -51
-7 -65 -9 -117 -20 -233 -30 -335 -29 -162 0 -230 20 -480 138 -158 74 -358
141 -480 159 -22 4 -47 8 -55 11 -19 5 -138 16 -211 20 -31 1 -61 5 -67 8 -12
8 4 100 24 139 8 15 22 32 32 37 13 7 17 18 14 43 -3 28 1 36 23 48 61 33 66
106 9 157 -20 18 -35 39 -33 50 2 21 -8 49 -32 83 -36 52 -118 229 -144 310
-15 47 -31 88 -34 92 -4 4 -17 -25 -29 -65z m-2236 -1200 c11 -13 19 -29 16
-37 -11 -42 -12 -43 -31 -21 -19 22 -55 28 -66 11 -11 -17 -23 -1 -18 23 12
49 66 62 99 24z m4586 10 c16 -13 21 -28 19 -56 -1 -12 -4 -12 -13 -3 -19 19
-55 14 -72 -10 l-15 -22 -9 25 c-21 56 42 102 90 66z m-2457 -120 l1 -48 -35
5 c-20 2 -47 7 -61 10 -14 4 -38 9 -54 12 -16 2 -33 7 -38 10 -4 3 -17 7 -28
9 -24 5 -59 24 -45 25 6 1 19 3 30 6 11 2 47 7 80 10 33 3 60 6 62 7 1 2 21 2
45 2 l42 0 1 -48z m400 38 c33 -4 69 -8 80 -9 11 -2 29 -4 40 -5 41 -4 -194
-71 -247 -71 -9 0 -11 83 -3 92 5 5 19 4 130 -7z m-2567 -128 c-4 -41 -25 -46
-33 -8 -8 36 0 52 21 44 10 -4 14 -16 12 -36z m4618 11 c-3 -13 -5 -29 -5 -36
-1 -23 -24 -7 -32 21 -8 29 -3 37 23 37 13 0 17 -6 14 -22z m-4660 -1630 l-1
-1343 -328 -1 c-180 0 -330 3 -332 6 -2 3 14 78 36 166 23 87 43 170 45 184 3
14 8 34 11 45 8 23 10 31 17 64 7 33 78 318 142 576 31 121 58 231 60 245 3
14 11 50 19 81 8 30 17 66 19 80 2 13 5 24 6 24 1 0 3 7 5 15 2 8 20 80 40
160 43 167 39 153 50 205 12 55 12 55 14 58 2 1 4 11 6 22 3 11 14 56 26 100
11 44 21 87 21 95 1 8 5 21 11 28 5 6 7 12 5 12 -3 0 1 24 8 53 7 28 20 81 28
117 9 36 20 81 26 100 8 31 36 144 54 223 4 15 8 27 10 27 1 0 2 -604 2 -1342z
m4684 1295 c6 -27 16 -68 21 -93 16 -69 17 -75 19 -75 1 0 3 -7 5 -15 1 -8 17
-71 34 -140 18 -69 34 -134 36 -145 3 -11 12 -49 21 -85 9 -36 18 -76 20 -90
3 -14 8 -34 11 -45 4 -11 8 -24 9 -30 1 -5 7 -30 14 -55 7 -25 14 -52 15 -60
2 -8 17 -71 35 -140 17 -69 33 -136 36 -150 3 -14 8 -34 11 -45 9 -25 11 -33
18 -69 8 -41 54 -225 65 -266 10 -33 105 -423 115 -465 2 -11 14 -58 25 -105
12 -47 23 -92 25 -100 2 -8 27 -107 55 -220 29 -113 53 -214 56 -225 4 -21 1
-21 -329 -20 l-332 0 -2 1343 c-1 738 0 1342 2 1342 2 0 8 -21 15 -47z m-68
-1295 c-1 -728 -1 -1328 -1 -1333 -1 -12 -655 -15 -666 -3 -4 4 -3 13 1 20 4
7 9 19 10 28 1 8 4 24 7 35 55 215 170 676 173 693 3 13 52 213 110 445 105
420 111 444 118 482 2 11 21 85 41 165 20 80 38 152 40 160 2 8 13 53 25 100
12 47 24 96 26 110 3 14 11 48 19 76 8 28 17 62 19 75 3 13 5 24 6 24 1 0 3 7
5 15 7 27 15 65 19 85 2 11 10 40 17 65 17 60 16 58 18 77 0 9 4 14 7 10 4 -3
6 -601 6 -1329z m-4547 1300 c15 -67 121 -495 156 -633 22 -88 43 -171 45
-185 3 -14 7 -32 10 -40 3 -8 8 -26 10 -39 3 -13 37 -151 75 -305 39 -155 73
-292 75 -306 3 -14 11 -46 19 -72 8 -27 12 -48 9 -48 -3 0 0 -9 6 -20 6 -10
12 -32 15 -47 2 -15 9 -48 15 -73 17 -68 17 -67 45 -180 14 -58 39 -158 55
-222 17 -65 32 -128 34 -140 3 -13 5 -24 7 -25 2 -4 4 -11 14 -58 13 -56 12
-55 15 -57 1 -2 3 -10 5 -18 1 -9 11 -49 21 -90 10 -41 17 -77 16 -80 -1 -3
-150 -5 -332 -5 -325 -1 -330 0 -331 20 -5 126 -2 2645 3 2645 4 0 10 -10 13
-22z"/>
</g>
</svg>
