<svg xmlns="http://www.w3.org/2000/svg" xmlns:xlink="http://www.w3.org/1999/xlink" width="78" height="78.75" viewBox="0 0 78 78.75"><defs><clipPath id="a"><path d="M228,142.582h41v78.75H228Zm0,0"/></clipPath><clipPath id="b"><path d="M209.363,159H231v44H209.363Zm0,0"/></clipPath><clipPath id="c"><path d="M266,159h21.363v44H266Zm0,0"/></clipPath></defs><g transform="translate(-3355.497 -4084)"><g transform="translate(3146.134 3941.418)" clip-path="url(#a)"><path d="M267.348,218.555h-10.52v-.489a1.326,1.326,0,0,0-1.328-1.324h-2.07a28.906,28.906,0,0,1-.371-3.523c-.27-3.949-1.082-5.391-1.829-5.844a1.706,1.706,0,0,0,0-3.238,6.572,6.572,0,0,0,.731-3.086,5.662,5.662,0,0,0-1.844-4.457V156.043c0-3.625,1.012-3.418,1.012-3.418v-.961a1.16,1.16,0,0,0,0-2.269v-.813a20.2,20.2,0,0,1-2.668-5.906,20.258,20.258,0,0,1-2.664,5.906v.813a1.159,1.159,0,0,0,0,2.269v.961s1.008-.207,1.008,3.418v40.551a5.673,5.673,0,0,0-1.84,4.457,6.583,6.583,0,0,0,.726,3.086,1.708,1.708,0,0,0,0,3.238c-.746.453-1.558,1.9-1.828,5.844a29.315,29.315,0,0,1-.367,3.523h-2.074a1.326,1.326,0,0,0-1.328,1.324v.489h-10.52a1.326,1.326,0,0,0-1.328,1.324v1.344h40.43v-1.344A1.326,1.326,0,0,0,267.348,218.555Zm0,0" fill="#741717"/></g><path d="M247.25,150.816c.008-.144.02-.214,0-.253a3.908,3.908,0,0,0,.031-1.594,7.431,7.431,0,0,0,1.078-3.949,13.408,13.408,0,0,1-1.066,2.449,6.964,6.964,0,0,0-.883,1.254,2.954,2.954,0,0,0-.054,1.047c-.508.066-1,.23-.879.906.1.535.539.586.976.6.02.282.043.567.067.848.015.168.254.274.367.391a4.738,4.738,0,0,1,.824,1.508,3.117,3.117,0,0,0-.539-2.079C247.2,151.566,247.23,151.191,247.25,150.816Zm0,0" transform="translate(3146.134 3941.418)"/><path d="M248.328,197.348c.34-.262.129-1.508.129-1.891q-.012-4.424-.047-8.848c-.058-7.64-.172-15.281-.406-22.914-.152,4.86-.246,9.719-.316,14.582q-.135,9.264-.145,18.532a5.33,5.33,0,0,0-1.848,4.16,7.034,7.034,0,0,0,.922,3.4,1.92,1.92,0,0,0-1.183.762,1.178,1.178,0,0,0,.125,1.351c.066.086,1.027.883,1.089.793a9.967,9.967,0,0,0-1.808,4.106c-.27,1.347-.195,2.777-.348,4.14-.066.586-.148,1.172-.234,1.758-.832.008-1.66.012-2.492.028-.934.023-.821,1.129-.77,1.851q-2.994.053-5.98.113c-1.047.02-2.094-.109-3.141-.082-.52.012-1.043.028-1.562.043a1.006,1.006,0,0,0-1.141,1.008c.18-.8,1.219-.758,1.652-.746.582.02,1.164.035,1.742.047q2.01.047,4.012.09t4.012.074c.23,0,.469.027.7.012.352-.024.281-.074.285-.41s.008-.993.02-1.211c.054-.371,2.508-.129,2.84-.125.2,0,.4.086.445-.145.047-.265.09-.531.137-.8.093-.543.183-1.09.246-1.633a27.743,27.743,0,0,1,.718-5.113,10.3,10.3,0,0,1,1.981-3.258l-1.148-.691c-.231-.141-.618-.262-.637-.566-.031-.446.793-.606,1.058-.676.778-.2.563-.477.223-1.153a5.975,5.975,0,0,1-.6-4.515A4.056,4.056,0,0,1,248.328,197.348Zm0,0" transform="translate(3146.134 3941.418)"/><g transform="translate(3146.134 3941.418)" clip-path="url(#b)"><path d="M229.723,198.117h-.813l-8.867-35.894a2.1,2.1,0,0,0,.457-1.446c0-.812-.3-1.632-.887-1.632s-.886.82-.886,1.632a2.1,2.1,0,0,0,.453,1.446l-8.867,35.894h-.528a.42.42,0,0,0-.422.418v.938a.42.42,0,0,0,.422.418h.344l.305,1.308a1.27,1.27,0,0,0,1.289,1.254H227.8a1.273,1.273,0,0,0,1.289-1.254l.3-1.308h.325a.423.423,0,0,0,.422-.418v-.938A.423.423,0,0,0,229.723,198.117Zm-1.453,0h-8.344V164.336Zm-8.657-38.344a1.554,1.554,0,0,1,.262,1,1.526,1.526,0,0,1-.262,1,1.5,1.5,0,0,1-.265-1A1.522,1.522,0,0,1,219.613,159.773Zm-.312,4.563v33.781h-8.344Zm0,0" fill="#741717"/></g><g transform="translate(3146.134 3941.418)" clip-path="url(#c)"><path d="M286.93,198.117H286.4l-8.867-35.894a2.1,2.1,0,0,0,.453-1.446c0-.812-.3-1.632-.886-1.632s-.887.82-.887,1.632a2.1,2.1,0,0,0,.457,1.446L267.8,198.117h-.813a.423.423,0,0,0-.422.418v.938a.423.423,0,0,0,.422.418h.324l.3,1.308a1.273,1.273,0,0,0,1.289,1.254h16.082a1.27,1.27,0,0,0,1.289-1.254l.3-1.308h.344a.42.42,0,0,0,.422-.418v-.938A.42.42,0,0,0,286.93,198.117Zm-1.172,0h-8.344V164.336ZM277.1,159.773a1.528,1.528,0,0,1,.265,1,1.511,1.511,0,0,1-.265,1,1.535,1.535,0,0,1-.262-1A1.554,1.554,0,0,1,277.1,159.773Zm-.309,4.563v33.781h-8.348Zm0,0" fill="#741717"/></g><path d="M228.016,201.176c-.075.379-2.922.027-3.145.019q-1.945-.071-3.891-.082c-2.6-.019-5.207,0-7.8.141-.2.012-1.621.2-1.66-.043a2.467,2.467,0,0,1-.145-.566c-.172-.547-.351-1.094-.543-1.633q.129,1.067.3,2.125c-.195.164.312.621.625.676a12.428,12.428,0,0,0,1.418.078c2.84.152,5.691.172,8.535.136,1.547-.019,3.094-.054,4.641-.136a12.428,12.428,0,0,0,1.418-.078c.316-.055.781-.5.625-.676.113-.707.218-1.414.3-2.125A9.875,9.875,0,0,0,228.016,201.176Zm0,0" transform="translate(3146.134 3941.418)"/><path d="M285.887,199.012a7.732,7.732,0,0,0-.684,2.183.034.034,0,0,1,0-.019c-.078.383-2.926.027-3.148.019q-1.945-.071-3.891-.082c-2.6-.019-5.207,0-7.8.141-.2.012-1.621.2-1.656-.043a2.465,2.465,0,0,1-.144-.566c-.172-.547-.356-1.094-.547-1.633.086.711.187,1.422.3,2.125-.2.164.313.621.625.676a12.478,12.478,0,0,0,1.418.078c2.84.152,5.692.172,8.535.136,1.547-.019,3.094-.054,4.641-.136a12.428,12.428,0,0,0,1.418-.078c.316-.055.781-.5.625-.676Q285.758,200.076,285.887,199.012Zm0,0" transform="translate(3146.134 3941.418)"/><path d="M276.961,157.484a1.615,1.615,0,0,0-.75.184,71.732,71.732,0,0,1-9,1.437,9.111,9.111,0,0,1-3.746-.433,34.941,34.941,0,0,1-3.7-1.625,25.257,25.257,0,0,0-6.641-1.906c-.2-.032-4.508-.336-4.508-.336-.086,0-4.824.3-5.027.336a25.257,25.257,0,0,0-6.641,1.906,35.03,35.03,0,0,1-3.7,1.625,9.111,9.111,0,0,1-3.746.433,71.7,71.7,0,0,1-9-1.437,1.631,1.631,0,0,0-.75-.184,1.647,1.647,0,1,0,1.449,2.438c4.488,1.215,10.551,3.156,15.047,1.5a35.764,35.764,0,0,1,3.848-1.051,14.761,14.761,0,0,0,16.6.016,35.769,35.769,0,0,1,3.766,1.035c4.5,1.652,10.558-.289,15.047-1.5a1.651,1.651,0,1,0,1.449-2.438Zm-57.207,2.387a.74.74,0,1,1,.742-.742A.742.742,0,0,1,219.754,159.871Zm28.656.891a12.983,12.983,0,0,1-5.125-.969,32.78,32.78,0,0,1,10.223.012A13.037,13.037,0,0,1,248.41,160.762Zm28.551-.891a.74.74,0,1,1,.742-.742A.742.742,0,0,1,276.961,159.871Zm0,0" transform="translate(3146.134 3941.418)" fill="#741717"/><path d="M242.48,160.207a20.4,20.4,0,0,0,11.836.012A10.972,10.972,0,0,1,242.48,160.207Zm0,0" transform="translate(3146.134 3941.418)"/><path d="M246.785,155.246c-1.25.055-2.488.164-3.691.332a21.456,21.456,0,0,0-5.6,1.758,26.011,26.011,0,0,1-5.48,2.109c-3.164.586-6.418-.105-9.547-.613,2.93.691,5.941,1.465,8.976,1.184a18.012,18.012,0,0,0,5.317-1.657,28.023,28.023,0,0,1,5.722-1.925,25.9,25.9,0,0,1,4.305-.368Zm0,0" transform="translate(3146.134 3941.418)"/><path d="M262.879,158.906c-1.391-.547-2.7-1.293-4.078-1.851a23.527,23.527,0,0,0-3.508-1.106,29.679,29.679,0,0,0-5.176-.691v.82a29.758,29.758,0,0,1,4.313.453,21.868,21.868,0,0,1,4.258,1.2,45.263,45.263,0,0,0,5.07,2.043c3.39.918,7.125-.156,10.445-.937C270.48,159.434,266.512,160.348,262.879,158.906Zm0,0" transform="translate(3146.134 3941.418)"/></g></svg>